# xmcd
#
# Track frame offsets:
#	150
#	24882
#	40239
#	57734
#	73077
#	101271
#	119639
#	135641
#	149939
#	163207
#	179123
#	196593
#	210286
#	226077
#	244017
#	260279
#	279267
#	294848
#	312178
#	327306
#
# Disc length: 4571 seconds
#
# Revision: 1
# Processed by: cddbd v1.5.2PL0 Copyright (c) Steve Scherf et al.
# Submitted via: audiograbber 1.83.01
#
DISCID=2911d914
DTITLE=Various Artist - Maxima FM Vol. 07 [CD2)
DYEAR=2007
DGENRE=Dance
TTITLE0=Sugababes - Easy (Seamus Haji and Paul Emanuel RMX)
TTITLE1=Lucky Twice - Lucky
TTITLE2=King Dom - Any Chance To Win
TTITLE3=September - Looking For Love
TTITLE4=Djuma Soundsystem - Les Djinns (Trentemöller Remix)
TTITLE5=Dani Moreno (The Cock) - I Want It All
TTITLE6=Tiesto presents Allure - The Love We Lost
TTITLE7=IIO - Is It Love
TTITLE8=Armin van Buuren - Sail
TTITLE9=Amo and Navas pres. Juanra Martinez - Puro Veneno
TTITLE10=Milk Inc.  - Run
TTITLE11=Supafly Inc. - Moving Too Fast
TTITLE12=Kate Ryan - Alive
TTITLE13=Spoonface - Here For You
TTITLE14=Get-Far - Shining Star
TTITLE15=Denis Naidanow - Ascension
TTITLE16=Jealous Guys - Mr. Brightside
TTITLE17=Girardi and Orian feat. Fatal Charm - Lucille
TTITLE18=Beatfreakz - Superfreak
TTITLE19=Intermode - Tell Me (Electro)
EXTD=
EXTT0=
EXTT1=
EXTT2=
EXTT3=
EXTT4=
EXTT5=
EXTT6=
EXTT7=
EXTT8=
EXTT9=
EXTT10=
EXTT11=
EXTT12=
EXTT13=
EXTT14=
EXTT15=
EXTT16=
EXTT17=
EXTT18=
EXTT19=
PLAYORDER=
